<svg width="138" height="52" viewBox="0 0 138 52" fill="none" xmlns="http://www.w3.org/2000/svg">
<path d="M3.192 32.6608C4.61067 32.1795 5.89 31.7108 7.03 31.2548C8.19533 30.7735 9.12 30.2668 9.804 29.7348C10.716 29.0001 11.438 28.1135 11.97 27.0748C12.502 26.0361 12.768 24.8961 12.768 23.6548C12.768 22.9201 12.7173 22.4515 12.616 22.2488C12.5147 22.0461 12.3627 21.9448 12.16 21.9448C11.5267 21.9448 10.8427 22.2235 10.108 22.7808C9.37333 23.3381 8.65133 24.1108 7.942 25.0988C7.23267 26.0615 6.574 27.1635 5.966 28.4048C5.38333 29.6461 4.91467 30.9761 4.56 32.3948C4.20533 33.7881 4.028 35.1815 4.028 36.5748C4.028 37.8668 4.26867 38.8041 4.75 39.3868C5.23133 39.9441 5.86467 40.2228 6.65 40.2228C7.562 40.2228 8.52467 39.9441 9.538 39.3868C10.5513 38.8295 11.5393 37.8415 12.502 36.4228L13.11 36.7268C12.6287 37.5628 11.9953 38.3735 11.21 39.1588C10.4247 39.9441 9.538 40.5901 8.55 41.0968C7.58733 41.5781 6.56133 41.8188 5.472 41.8188C4.45867 41.8188 3.572 41.6161 2.812 41.2108C2.052 40.8055 1.46933 40.2101 1.064 39.4248C0.658667 38.6141 0.456 37.6261 0.456 36.4608C0.456 35.3715 0.658667 34.1555 1.064 32.8128C1.46933 31.4448 2.03933 30.0895 2.774 28.7468C3.534 27.3788 4.43333 26.1248 5.472 24.9848C6.51067 23.8448 7.66333 22.9328 8.93 22.2488C10.1967 21.5648 11.552 21.2228 12.996 21.2228C13.7813 21.2228 14.44 21.4381 14.972 21.8688C15.5293 22.2741 15.808 22.8948 15.808 23.7308C15.808 24.7441 15.504 25.6941 14.896 26.5808C14.3133 27.4421 13.528 28.2401 12.54 28.9748C11.5773 29.6841 10.526 30.3175 9.386 30.8748C8.246 31.4321 7.13133 31.9135 6.042 32.3188C4.95267 32.7241 3.99 33.0535 3.154 33.3068L3.192 32.6608ZM24.005 30.4948L24.195 29.7348H25.905C27.7797 29.7348 29.363 29.4815 30.655 28.9748C31.947 28.4428 32.9857 27.7081 33.771 26.7708C34.5563 25.8335 35.1263 24.7568 35.481 23.5408C35.8357 22.2995 36.013 20.9695 36.013 19.5508C36.013 18.0561 35.633 16.9541 34.873 16.2448C34.1383 15.5101 32.9097 15.1428 31.187 15.1428C30.4523 15.1428 29.857 15.2441 29.401 15.4468C28.9703 15.6241 28.6157 15.9535 28.337 16.4348C28.0837 16.8908 27.843 17.5495 27.615 18.4108L22.599 37.2588C22.3963 38.0441 22.2823 38.6775 22.257 39.1588C22.2317 39.6148 22.3963 39.9568 22.751 40.1848C23.131 40.3875 23.8277 40.5015 24.841 40.5268L24.689 41.2868C24.1063 41.2361 23.397 41.2108 22.561 41.2108C21.725 41.1855 20.8637 41.1728 19.977 41.1728C18.989 41.1728 18.0517 41.1855 17.165 41.2108C16.2783 41.2108 15.569 41.2361 15.037 41.2868L15.189 40.5268C16.0503 40.4761 16.7217 40.3748 17.203 40.2228C17.6843 40.0708 18.0643 39.7668 18.343 39.3108C18.6217 38.8548 18.875 38.1708 19.103 37.2588L24.119 18.4108C24.347 17.6001 24.4483 16.9668 24.423 16.5108C24.423 16.0295 24.233 15.6875 23.853 15.4848C23.473 15.2568 22.8143 15.1428 21.877 15.1428L22.067 14.3828C22.5737 14.4081 23.2703 14.4335 24.157 14.4588C25.0437 14.4841 25.905 14.4968 26.741 14.4968C27.653 14.4968 28.565 14.4841 29.477 14.4588C30.4143 14.4335 31.3517 14.4208 32.289 14.4208C34.8477 14.4208 36.7477 14.9528 37.989 16.0168C39.2303 17.0555 39.851 18.4361 39.851 20.1588C39.851 22.1348 39.243 23.9081 38.027 25.4788C36.8364 27.0241 35.1644 28.2528 33.011 29.1648C30.8577 30.0515 28.3623 30.4948 25.525 30.4948H24.005ZM45.85 14.8388C45.9766 14.1801 46.306 13.6101 46.838 13.1288C47.3953 12.6475 47.9906 12.4068 48.624 12.4068C49.2826 12.4068 49.7893 12.6475 50.144 13.1288C50.524 13.6101 50.6506 14.1801 50.524 14.8388C50.3973 15.4975 50.0553 16.0675 49.498 16.5488C48.966 17.0301 48.3706 17.2708 47.712 17.2708C47.0786 17.2708 46.572 17.0301 46.192 16.5488C45.8373 16.0675 45.7233 15.4975 45.85 14.8388ZM44.672 24.9848C45.204 23.4141 45.0266 22.6288 44.14 22.6288C43.5573 22.6288 43.038 22.9455 42.582 23.5788C42.126 24.2121 41.6446 25.1875 41.138 26.5048L40.606 27.9108H39.884L40.872 25.1368C41.252 24.0728 41.708 23.2621 42.24 22.7048C42.772 22.1475 43.3293 21.7675 43.912 21.5648C44.52 21.3368 45.0773 21.2228 45.584 21.2228C46.3946 21.2228 46.99 21.3875 47.37 21.7168C47.75 22.0461 47.978 22.4768 48.054 23.0088C48.13 23.5408 48.1046 24.1235 47.978 24.7568C47.8513 25.3648 47.6866 25.9601 47.484 26.5428L43.418 38.0568C43.1646 38.7915 43.076 39.3741 43.152 39.8048C43.2533 40.2101 43.5446 40.4128 44.026 40.4128C44.5326 40.4128 45.014 40.1341 45.47 39.5768C45.926 39.0195 46.4326 38.0061 46.99 36.5368L47.522 35.1308H48.244L47.256 37.9048C46.9013 38.8928 46.4706 39.6781 45.964 40.2608C45.4573 40.8181 44.9126 41.2108 44.33 41.4388C43.7473 41.6921 43.1646 41.8188 42.582 41.8188C41.4926 41.8188 40.758 41.5655 40.378 41.0588C39.998 40.5521 39.8586 39.8935 39.96 39.0828C40.0613 38.2721 40.2766 37.4108 40.606 36.4988L44.672 24.9848ZM51.0848 39.8048C51.6168 39.4501 52.0981 39.1588 52.5288 38.9308C52.9848 38.6775 53.4028 38.4748 53.7828 38.3228C54.1628 38.1455 54.5174 38.0188 54.8468 37.9428C55.2014 37.8668 55.5561 37.8288 55.9108 37.8288C56.5188 37.8288 57.0888 37.9301 57.6208 38.1328C58.1528 38.3355 58.6974 38.5381 59.2548 38.7408C59.8121 38.9435 60.4074 39.0448 61.0408 39.0448C61.6994 39.0448 62.2061 38.8928 62.5608 38.5888C62.9408 38.2595 63.1308 37.7781 63.1308 37.1448C63.1308 36.4608 62.8521 35.8781 62.2948 35.3968C61.7374 34.9155 61.0154 34.5861 60.1288 34.4088L60.3568 33.8388C61.5221 34.0921 62.4214 34.5355 63.0548 35.1688C63.7134 35.7768 64.0428 36.5621 64.0428 37.5248C64.0428 38.1835 63.8908 38.8295 63.5868 39.4628C63.3081 40.0708 62.8521 40.5648 62.2188 40.9448C61.5854 41.3248 60.7241 41.5148 59.6348 41.5148C58.9761 41.5148 58.3934 41.4388 57.8868 41.2868C57.4054 41.1095 56.9368 40.9195 56.4808 40.7168C56.0248 40.4888 55.5308 40.2988 54.9988 40.1468C54.4668 39.9695 53.8334 39.8808 53.0988 39.8808C52.4401 39.8808 51.8321 39.9821 51.2748 40.1848C50.7428 40.3621 50.2108 40.7295 49.6788 41.2868H48.6528L65.7908 23.2368C65.2588 23.5661 64.7648 23.8575 64.3088 24.1108C63.8781 24.3641 63.4728 24.5795 63.0928 24.7568C62.7128 24.9088 62.3454 25.0228 61.9908 25.0988C61.6614 25.1748 61.3194 25.2128 60.9648 25.2128C60.3568 25.2128 59.7868 25.1115 59.2548 24.9088C58.7228 24.7061 58.1781 24.5035 57.6208 24.3008C57.0888 24.0981 56.4934 23.9968 55.8348 23.9968C55.2014 23.9968 54.6948 24.1488 54.3148 24.4528C53.9348 24.7568 53.7448 25.2381 53.7448 25.8968C53.7448 26.5808 54.0234 27.1635 54.5808 27.6448C55.1634 28.1261 55.8854 28.4555 56.7468 28.6328L56.5188 29.2028C55.3534 28.9241 54.4414 28.4808 53.7828 27.8728C53.1494 27.2648 52.8328 26.4795 52.8328 25.5168C52.8328 24.8328 52.9721 24.1868 53.2508 23.5788C53.5548 22.9708 54.0234 22.4768 54.6568 22.0968C55.3154 21.7168 56.1768 21.5268 57.2408 21.5268C57.8994 21.5268 58.4694 21.6155 58.9508 21.7928C59.4574 21.9448 59.9388 22.1348 60.3948 22.3628C60.8508 22.5655 61.3448 22.7555 61.8768 22.9328C62.4088 23.0848 63.0421 23.1608 63.7768 23.1608C64.4354 23.1608 65.0308 23.0721 65.5628 22.8948C66.1201 22.6921 66.6648 22.3121 67.1968 21.7548H68.2228L51.0848 39.8048ZM68.0066 39.8048C68.5386 39.4501 69.02 39.1588 69.4506 38.9308C69.9066 38.6775 70.3246 38.4748 70.7046 38.3228C71.0846 38.1455 71.4393 38.0188 71.7686 37.9428C72.1233 37.8668 72.478 37.8288 72.8326 37.8288C73.4406 37.8288 74.0106 37.9301 74.5426 38.1328C75.0746 38.3355 75.6193 38.5381 76.1766 38.7408C76.734 38.9435 77.3293 39.0448 77.9626 39.0448C78.6213 39.0448 79.128 38.8928 79.4826 38.5888C79.8626 38.2595 80.0526 37.7781 80.0526 37.1448C80.0526 36.4608 79.774 35.8781 79.2166 35.3968C78.6593 34.9155 77.9373 34.5861 77.0506 34.4088L77.2786 33.8388C78.444 34.0921 79.3433 34.5355 79.9766 35.1688C80.6353 35.7768 80.9646 36.5621 80.9646 37.5248C80.9646 38.1835 80.8126 38.8295 80.5086 39.4628C80.23 40.0708 79.774 40.5648 79.1406 40.9448C78.5073 41.3248 77.646 41.5148 76.5566 41.5148C75.898 41.5148 75.3153 41.4388 74.8086 41.2868C74.3273 41.1095 73.8586 40.9195 73.4026 40.7168C72.9466 40.4888 72.4526 40.2988 71.9206 40.1468C71.3886 39.9695 70.7553 39.8808 70.0206 39.8808C69.362 39.8808 68.754 39.9821 68.1966 40.1848C67.6646 40.3621 67.1326 40.7295 66.6006 41.2868H65.5746L82.7126 23.2368C82.1806 23.5661 81.6866 23.8575 81.2306 24.1108C80.8 24.3641 80.3946 24.5795 80.0146 24.7568C79.6346 24.9088 79.2673 25.0228 78.9126 25.0988C78.5833 25.1748 78.2413 25.2128 77.8866 25.2128C77.2786 25.2128 76.7086 25.1115 76.1766 24.9088C75.6446 24.7061 75.1 24.5035 74.5426 24.3008C74.0106 24.0981 73.4153 23.9968 72.7566 23.9968C72.1233 23.9968 71.6166 24.1488 71.2366 24.4528C70.8566 24.7568 70.6666 25.2381 70.6666 25.8968C70.6666 26.5808 70.9453 27.1635 71.5026 27.6448C72.0853 28.1261 72.8073 28.4555 73.6686 28.6328L73.4406 29.2028C72.2753 28.9241 71.3633 28.4808 70.7046 27.8728C70.0713 27.2648 69.7546 26.4795 69.7546 25.5168C69.7546 24.8328 69.894 24.1868 70.1726 23.5788C70.4766 22.9708 70.9453 22.4768 71.5786 22.0968C72.2373 21.7168 73.0986 21.5268 74.1626 21.5268C74.8213 21.5268 75.3913 21.6155 75.8726 21.7928C76.3793 21.9448 76.8606 22.1348 77.3166 22.3628C77.7726 22.5655 78.2666 22.7555 78.7986 22.9328C79.3306 23.0848 79.964 23.1608 80.6986 23.1608C81.3573 23.1608 81.9526 23.0721 82.4846 22.8948C83.042 22.6921 83.5866 22.3121 84.1186 21.7548H85.1446L68.0066 39.8048ZM88.9945 40.6028C89.6025 40.6028 90.2992 40.2228 91.0845 39.4628C91.8698 38.6775 92.6678 37.6261 93.4785 36.3088C94.2892 34.9915 95.0365 33.4968 95.7205 31.8248C96.4045 30.1528 96.9492 28.4175 97.3545 26.6188L96.7085 30.7228C95.7458 33.4081 94.7832 35.5741 93.8205 37.2208C92.8578 38.8421 91.8825 40.0201 90.8945 40.7548C89.9065 41.4641 88.9058 41.8188 87.8925 41.8188C86.7018 41.8188 85.8025 41.3881 85.1945 40.5268C84.6118 39.6655 84.3205 38.5635 84.3205 37.2208C84.3205 36.0048 84.5232 34.6875 84.9285 33.2688C85.3338 31.8248 85.8912 30.3935 86.6005 28.9748C87.3352 27.5561 88.1712 26.2641 89.1085 25.0988C90.0458 23.9335 91.0592 22.9961 92.1485 22.2868C93.2632 21.5775 94.3905 21.2228 95.5305 21.2228C96.4172 21.2228 97.0885 21.6661 97.5445 22.5528C98.0258 23.4141 98.1272 24.6301 97.8485 26.2008L97.4305 26.4288C97.6078 25.0861 97.5192 24.0095 97.1645 23.1988C96.8098 22.3628 96.2272 21.9448 95.4165 21.9448C94.7578 21.9448 94.0612 22.2741 93.3265 22.9328C92.6172 23.5661 91.9205 24.4401 91.2365 25.5548C90.5778 26.6441 89.9698 27.8728 89.4125 29.2408C88.8805 30.6088 88.4498 32.0275 88.1205 33.4968C87.8165 34.9408 87.6645 36.3341 87.6645 37.6768C87.6645 38.7661 87.7785 39.5261 88.0065 39.9568C88.2598 40.3875 88.5892 40.6028 88.9945 40.6028ZM98.5705 21.7548C99.1785 21.7295 99.7865 21.6788 100.395 21.6028C101.003 21.5268 101.56 21.4001 102.067 21.2228L97.3165 38.0188C97.2658 38.2468 97.1898 38.5508 97.0885 38.9308C97.0125 39.2855 97.0125 39.6148 97.0885 39.9188C97.1898 40.2228 97.4558 40.3748 97.8865 40.3748C98.3932 40.3748 98.8872 40.0961 99.3685 39.5388C99.8498 38.9815 100.331 37.9681 100.813 36.4988L101.269 35.0928H101.991L101.041 37.8668C100.686 38.8801 100.255 39.6781 99.7485 40.2608C99.2672 40.8181 98.7605 41.2108 98.2285 41.4388C97.6965 41.6921 97.1772 41.8188 96.6705 41.8188C95.6825 41.8188 94.9858 41.4895 94.5805 40.8308C94.2512 40.2481 94.1625 39.5768 94.3145 38.8168C94.4665 38.0315 94.6438 37.2461 94.8465 36.4608L98.5705 21.7548Z" fill="black"/>
<g clip-path="url(#clip0_1_306)">
<path d="M105.867 41.2813C105.527 40.786 105.814 40.2902 105.824 39.7948C105.959 39.5542 105.912 39.3135 106.036 39.0727C106.135 38.8325 106.174 38.5915 106.249 38.3505C106.278 37.8532 106.393 37.3646 106.588 36.9061C106.68 36.4113 106.822 35.9273 107.013 35.4618C107.1 34.9658 107.242 34.4813 107.438 34.0175C107.355 33.7768 107.649 33.5358 107.565 33.2958C107.734 33.0561 107.693 32.8137 107.862 32.574C107.87 32.0922 108.188 31.6114 108.202 31.1295C108.33 30.9095 108.403 30.6619 108.415 30.4077C108.549 30.1903 108.622 29.9406 108.627 29.6851C108.723 29.5118 108.794 29.3261 108.839 29.1332C108.855 29.0778 108.828 29.0027 108.839 28.9627C108.918 28.7004 109.063 28.4856 109.137 28.241C109.145 28.2136 109.086 28.1354 109.094 28.1132C109.15 27.9668 109.282 27.7419 109.349 27.5192C109.357 27.492 109.298 27.414 109.306 27.3919C109.361 27.2485 109.495 27.0148 109.56 26.7977C109.598 26.6729 109.563 26.5478 109.603 26.4157C109.659 26.2301 109.744 26.0563 109.815 25.8635C109.854 25.7586 109.862 25.6632 109.9 25.5239C110.028 25.0423 110.293 24.4586 110.409 23.9097C111.045 21.9839 111.669 20.058 112.279 18.1321C112.107 18.043 111.714 17.7501 111.684 17.5374C111.471 17.2685 111.534 16.9986 111.557 16.7304C111.523 16.4766 111.523 16.2196 111.556 15.9658C111.596 15.7108 111.676 15.4569 111.726 15.2013C111.812 15.0924 111.857 14.9572 111.854 14.8187C111.959 14.7137 112.033 14.5813 112.066 14.4365C112.859 13.5279 113.653 13.1239 114.445 12.9919C115.318 13.1693 116.092 13.67 116.611 14.3938C116.852 14.5265 117.093 14.3602 117.334 14.3515C117.574 14.3547 117.815 14.4558 118.056 14.3939C118.254 14.5288 118.451 14.4583 118.65 14.564C118.834 14.5923 119.018 14.7554 119.202 14.6916C119.574 14.8477 119.958 14.9756 120.349 15.074C120.739 15.3283 121.108 15.6124 121.454 15.9236C121.61 16.1107 121.752 16.3094 121.879 16.5181C122.071 16.8724 122.271 17.2263 122.261 17.58C122.516 17.7409 122.771 17.5742 123.025 17.6645C123.265 17.667 123.506 17.795 123.746 17.7916C124.508 18.0831 125.224 18.4837 125.871 18.981C127.437 20.3549 128.098 21.7285 128.122 23.1017C128.348 23.2459 128.575 23.1183 128.802 23.1869C129.025 23.2555 129.252 23.312 129.481 23.356C130.259 23.6594 131.038 24.3336 131.817 25.1829C131.847 25.2097 131.868 25.2458 131.877 25.2856C131.886 25.3288 131.91 25.3675 131.944 25.3948C132.518 26.188 132.676 26.9811 132.964 27.7741C132.916 27.9862 133.004 28.1989 133.006 28.4112C132.995 28.6235 132.919 28.8362 133.049 29.0481L133.898 29.8977C133.938 30.0869 134.026 30.2626 134.153 30.4079C134.235 30.8184 134.32 31.2289 134.366 31.6399C134.272 31.9229 134.275 32.2063 134.196 32.4893C134.092 32.6493 134.006 32.8204 133.941 32.9995L133.261 33.6792C132.469 34.1888 131.675 34.2493 130.882 34.2739C130.571 34.136 130.259 34.1347 129.947 33.8492C129.437 34.0948 128.912 34.3077 128.376 34.4867C127.47 35.2424 126.564 35.6093 125.657 36.0158C125.204 36.2416 124.751 36.2966 124.298 36.5262C123.86 36.5969 123.42 36.8932 122.982 36.9938C121.216 37.6924 119.415 38.302 117.587 38.8202C116.681 39.099 115.775 39.4558 114.869 39.7549C113.977 40.1898 113.085 40.6805 112.192 40.902C111.286 41.3724 110.381 41.4237 109.473 41.6664C108.581 41.8219 107.689 42.1596 106.798 42.1336C106.649 41.9681 106.478 41.825 106.288 41.7088C106.235 41.6176 106.153 41.5465 106.055 41.5067C106.002 41.4829 105.952 41.4515 105.907 41.4136C105.89 41.3965 105.877 41.3756 105.87 41.3525C105.863 41.3295 105.862 41.305 105.867 41.2813ZM110.624 35.5895C110.623 35.844 110.749 36.15 110.709 36.4387C110.705 36.47 110.635 36.494 110.624 36.5237C110.616 36.5458 110.675 36.6232 110.667 36.6512C110.641 36.741 110.572 36.7785 110.539 36.8633C110.525 36.9015 110.517 37.0341 110.497 37.0763C110.33 37.4286 109.66 37.991 109.393 38.1807C109.092 38.2821 108.772 38.3115 108.458 38.2664C108.303 38.3368 108.147 38.2349 107.991 38.2236C107.821 38.2194 107.651 38.0023 107.482 38.1384C107.311 38.592 107.247 39.0446 107.057 39.4978C107.019 39.9508 106.771 40.4038 106.971 40.8564C109.478 40.3966 111.983 39.4338 114.491 38.6889C114.621 38.4909 114.377 38.2922 114.406 38.0942C114.42 37.8942 114.448 37.6954 114.491 37.4995C114.586 37.1959 114.73 36.9095 114.915 36.651C115.261 36.2069 115.736 35.8804 116.274 35.7164C116.707 35.5825 117.169 35.5753 117.605 35.6957C118.042 35.8161 118.435 36.0591 118.738 36.3959C118.997 36.6365 119.011 36.8775 119.12 37.1179C120.579 36.4838 122.037 36.1456 123.496 35.5463C124.968 35.0597 126.441 34.591 127.913 33.4229C127.906 33.1869 127.849 32.9551 127.743 32.7439C127.795 32.5034 127.842 32.2623 127.87 32.0222C127.567 31.7956 127.544 31.5692 127.361 31.3425C127.313 31.068 127.242 30.7979 127.148 30.5352C127.161 30.068 127.209 29.6011 127.191 29.1335C127.318 28.6662 127.272 28.1689 127.063 27.7324C126.468 27.0712 125.873 27.3021 125.279 26.8828C125.114 26.7109 124.938 26.5395 124.764 26.3675C124.383 26.0148 124.029 25.6332 123.707 25.226C123.597 24.894 123.469 24.5679 123.325 24.249C123.112 23.9232 123.15 23.5975 122.772 23.2721C121.752 22.7624 120.732 22.9433 119.714 22.1681L119.204 21.6581C118.49 20.7806 118.423 19.9022 117.759 19.0244C117.264 18.9062 116.768 19.01 116.273 19.0669C115.777 19.0027 115.281 19.0888 114.786 19.0246C114.614 19.0047 114.444 18.9762 114.276 18.9393C114.093 18.9681 113.908 18.7268 113.724 18.897C113.29 20.1571 112.865 21.418 112.407 22.6776C112.205 23.315 112.004 23.9522 111.855 24.5893C111.774 25.2424 111.617 25.884 111.388 26.5009C111.401 26.8122 111.238 27.1239 111.218 27.4354C111.089 27.7612 111.049 28.0866 110.92 28.4124C110.671 29.0504 110.486 29.687 110.198 30.3237C109.684 31.5983 109.335 32.8727 108.924 34.1469C109.38 34.2999 109.795 34.5552 110.137 34.8933C110.342 35.0923 110.508 35.3285 110.624 35.5893L110.624 35.5895ZM108.5 36.4391C108.419 36.5098 108.464 36.5815 108.373 36.6515C108.231 36.8746 108.09 36.5172 107.949 36.6515C107.97 36.8642 107.772 37.0758 107.737 37.2879C107.934 37.4072 108.159 37.4739 108.389 37.4814C108.619 37.4889 108.848 37.4371 109.053 37.3309C108.803 37.2894 108.621 36.9545 108.925 36.779C108.968 36.8218 109.01 36.7954 109.053 36.8218C109.091 36.852 109.123 36.8907 109.144 36.9349C109.166 36.979 109.177 37.0275 109.177 37.0766C109.177 37.1258 109.165 37.1742 109.144 37.2184C109.122 37.2625 109.091 37.3012 109.052 37.3314L109.095 37.3742C109.321 37.3217 109.548 36.9665 109.774 36.78C109.828 36.486 109.842 36.1862 109.817 35.8884C109.456 35.5584 109.018 35.3246 108.543 35.2087C108.392 35.5249 108.264 35.8516 108.16 36.1861C108.258 36.238 108.35 36.2981 108.438 36.3657C108.461 36.3881 108.482 36.4126 108.5 36.4387L108.5 36.4391ZM117.166 36.4391C116.972 36.382 116.765 36.3821 116.571 36.4392C116.53 36.4491 116.447 36.4249 116.401 36.4394C116.074 36.7085 116.007 36.9773 115.679 37.2464C115.629 37.4161 115.457 37.5862 115.425 37.7561C115.402 37.9401 115.236 38.1241 115.382 38.3081C115.608 38.3604 115.835 38.1794 116.061 38.139C116.311 38.0639 116.553 37.9641 116.783 37.8413C117.029 37.8198 117.264 37.7316 117.463 37.5862C117.71 37.5426 117.953 37.4716 118.185 37.3744C118.122 37.187 118.014 37.0179 117.871 36.8815C117.672 36.6834 117.431 36.5321 117.166 36.4387L117.166 36.4391ZM127.956 27.3488C128.024 27.6035 128.139 27.8584 128.211 28.1135C128.208 28.3706 128.237 28.6272 128.295 28.8775C128.26 29.2456 128.245 29.6137 128.21 29.9822C128.278 30.2467 128.32 30.5169 128.338 30.7892C128.549 31.0583 128.483 31.3272 128.635 31.5962C128.669 32.0069 128.442 32.4175 128.677 32.8275C128.903 33.0488 129.13 32.9493 129.356 33.0824C129.532 33.0976 129.418 32.7276 129.696 32.7425C130.262 33.28 130.829 33.14 131.395 33.2526C131.82 33.1414 132.245 33.126 132.669 32.8273L133.136 32.3601C133.164 32.2087 133.222 32.0643 133.305 31.9349C133.29 31.2694 133.339 30.6038 132.583 29.9393C132.144 30.2272 131.705 30.6736 131.266 30.1516C131.038 29.7977 131.513 29.4445 131.733 29.0897C131.735 28.9892 131.749 28.8893 131.775 28.7923C131.775 28.6357 131.761 28.4794 131.733 28.3253C131.718 28.2044 131.755 28.0912 131.732 27.9857C131.719 27.9206 131.66 27.8701 131.647 27.8158C131.626 27.701 131.598 27.5876 131.563 27.476C131.383 26.8847 131.11 26.3257 130.755 25.8198C129.807 24.8157 128.858 24.15 127.909 23.9932C127.885 24.0626 127.846 24.126 127.795 24.1794C127.744 24.2327 127.683 24.2748 127.615 24.3029C127.547 24.331 127.473 24.3444 127.4 24.3424C127.326 24.3403 127.254 24.3227 127.187 24.2908C126.704 23.9085 126.988 23.5256 126.975 23.1443C126.868 22.3517 126.577 21.5951 126.125 20.9351C125.464 20.1665 124.674 19.5196 123.79 19.0234C123.421 18.8759 123.036 18.7758 122.643 18.7253C122.246 18.6317 121.85 18.832 121.453 18.4706C121.198 18.7876 120.944 18.9237 120.689 18.7253C120.442 18.5443 120.491 18.2578 120.434 18.046C120.356 17.6363 120.197 17.2463 119.967 16.8989L119.159 16.0917C118.533 15.6786 117.781 15.4984 117.036 15.5822C116.887 15.8226 117.036 16.0636 116.738 16.3044C116.509 16.4477 116.282 16.205 116.054 15.9627C115.986 15.8897 115.915 15.8156 115.846 15.7526C115.803 15.5567 115.775 15.3579 115.761 15.1578C115.522 14.778 115.184 14.4699 114.784 14.2658C114.674 14.3023 114.555 14.3023 114.444 14.2658C114.222 14.3757 114.009 14.5035 113.807 14.6476C113.564 14.8967 113.363 15.1838 113.213 15.4975C113.093 15.7809 112.879 16.0641 112.958 16.3472C113.158 16.0191 113.401 15.7191 113.68 15.4551C113.85 15.4537 114.02 15.1403 114.189 15.3697C114.42 15.6957 113.764 16.0215 113.723 16.3472C113.592 16.4808 113.491 16.6399 113.425 16.8144C113.373 16.9841 113.129 17.1547 113.255 17.324C113.482 17.3214 113.453 16.9579 113.68 16.8146C113.828 16.5987 113.999 16.3993 114.19 16.2199C114.359 16.2077 114.53 16.0528 114.699 16.2199C114.81 16.7578 113.823 17.2957 113.934 17.8337C114.204 17.7808 114.187 17.4264 114.359 17.2388C114.497 17.0231 114.748 16.635 114.996 16.8565C115.401 17.2388 114.571 17.6208 114.784 18.0034C115.261 18.0267 115.321 16.8361 115.931 17.1112C116.148 17.4087 115.707 17.7064 115.803 18.0036C116.237 17.9201 116.681 17.9054 117.12 17.9599C117.435 17.9916 117.74 18.0932 118.012 18.2574C119.04 19.0068 119.1 19.937 119.711 20.8057L120.348 21.4421C121.339 22.0617 122.33 21.8064 123.322 22.4612C123.42 22.4108 123.519 22.1605 123.619 22.2489C123.732 22.1858 123.845 21.9165 123.959 21.9936C124.185 21.7797 124.412 21.6726 124.638 21.9089C124.865 22.3557 123.561 22.6404 123.916 23.1409C124.326 22.9622 124.738 22.1639 125.148 22.5885C125.308 22.801 125.084 23.0136 124.851 23.2258C124.68 23.4524 124.233 23.679 124.426 23.9057C124.554 24.0407 124.681 23.9041 124.808 23.778C124.936 23.8581 125.063 23.7045 125.191 23.9055C125.126 24.0052 125.322 24.1038 125.148 24.2028C125.048 24.3027 125.097 24.4013 124.936 24.5003C124.665 24.6985 124.707 24.8967 124.851 25.0948C125.035 25.0975 125.219 24.8583 125.403 25.0529C125.417 25.1519 125.521 25.2509 125.445 25.3499C125.501 25.4633 125.166 25.5766 125.361 25.6895C125.456 25.7392 125.536 25.8147 125.591 25.9073C125.658 26.0011 125.738 26.0851 125.828 26.1569C126.063 26.218 126.29 26.3035 126.507 26.412C126.748 26.3615 126.989 26.5443 127.23 26.6242L127.956 27.3488ZM108.245 38.7336C108.732 38.4358 108.964 39.4075 108.5 39.498C108.428 39.4777 108.362 39.4392 108.309 39.3863C108.23 39.2984 108.181 39.1875 108.17 39.0698C108.158 38.9521 108.185 38.8339 108.246 38.7324L108.245 38.7336ZM111.516 38.3513C111.621 38.1526 111.551 37.9546 111.687 37.7564C111.767 37.3408 111.91 36.9397 112.111 36.567C112.55 36.2184 112.989 36.2711 113.428 36.2695L113.471 36.3121C113.756 36.666 113.426 37.0199 113.428 37.374C113.357 37.714 113.295 38.0543 113.258 38.393C113.172 38.5061 113.166 38.6194 113.003 38.7328C113.028 38.8321 113.074 38.9311 112.961 39.0301C112.745 39.1308 112.508 39.1759 112.27 39.1611C112.033 39.1462 111.803 39.072 111.601 38.9452L111.598 38.9419C111.401 38.7446 111.563 38.5475 111.516 38.3506L111.516 38.3513ZM112.409 37.0344C112.367 37.459 112.406 37.8839 112.324 38.3085C112.212 38.4084 112.11 38.5068 112.197 38.6055C112.353 38.4891 112.508 38.6177 112.664 38.4782C112.632 37.9833 112.719 37.488 112.919 37.0339C112.868 36.9628 112.918 36.8916 112.876 36.8214C112.72 36.9208 112.564 36.8062 112.408 37.0337L112.409 37.0344ZM108.883 35.9713C108.893 35.9197 108.913 35.8706 108.942 35.8269C108.971 35.7832 109.009 35.7457 109.053 35.7169C109.174 35.7486 109.28 35.8243 109.35 35.9294C109.23 36.0141 109.335 36.0993 109.18 36.1843C109.094 36.1696 109.015 36.1235 108.961 36.0549C108.935 36.0279 108.908 36.0008 108.883 35.9713ZM110.37 33.6355C109.776 32.6586 110.27 31.6818 111.007 30.7049C111.346 30.3903 111.779 30.1961 112.239 30.1523C112.381 30.2812 112.523 30.243 112.664 30.4074C112.763 30.5391 112.83 30.6922 112.86 30.8545C112.889 31.0167 112.88 31.1836 112.834 31.3418C113.032 31.5015 113.23 31.3365 113.429 31.4265C113.613 31.4062 113.797 31.5122 113.981 31.4693C114.264 31.7 114.548 31.7154 114.831 32.0638C114.803 32.1623 114.906 32.262 114.958 32.3609C114.969 32.5291 114.94 32.6974 114.874 32.8523C114.807 33.0071 114.705 33.1442 114.576 33.2523C113.953 33.6141 113.33 33.3449 112.707 33.0824C112.599 33.2949 112.652 33.5072 112.41 33.7197C112.217 33.8786 111.989 33.9886 111.745 34.0404C111.501 34.0921 111.248 34.0841 111.008 34.017C110.806 33.9845 110.619 33.8921 110.47 33.7517C110.433 33.7157 110.4 33.6769 110.37 33.6355ZM111.984 30.917C111.007 31.3827 110.669 32.5119 111.177 33.2533C111.299 33.3232 111.435 33.3634 111.575 33.3707C111.715 33.3781 111.855 33.3522 111.984 33.2954C112.039 33.1334 112.111 32.977 112.196 32.8285C112.201 32.6724 112.446 32.5165 112.578 32.3615C112.847 32.3505 113.116 32.5782 113.385 32.7442C113.696 32.6869 114.008 32.9841 114.319 32.6586C114.37 32.3852 114.169 32.3245 113.936 32.1062C113.671 32.0437 113.401 32.0012 113.129 31.9791C113.002 31.9091 112.874 32.0069 112.747 31.9369C112.606 31.9047 112.464 32.0654 112.322 31.8515C112.08 31.5575 112.335 31.2635 112.042 30.9697C112.023 30.951 112.004 30.9332 111.984 30.9165L111.984 30.917ZM112.579 34.9951C112.905 34.6723 113.231 34.9094 113.556 34.9525C113.737 35.0657 113.688 35.179 113.726 35.2926C113.5 35.5615 113.273 35.4949 113.046 35.3775C112.985 35.3998 112.917 35.4023 112.854 35.3844C112.791 35.3665 112.735 35.3292 112.694 35.2778C112.654 35.2431 112.622 35.1993 112.602 35.15C112.582 35.1008 112.574 35.0474 112.578 34.9944L112.579 34.9951ZM116.105 37.4166C116.104 37.2339 116.32 37.1575 116.445 37.1614C116.579 37.2745 116.511 37.3882 116.529 37.5011C116.405 37.6153 116.281 37.5989 116.157 37.4748C116.138 37.4561 116.121 37.4365 116.104 37.4159L116.105 37.4166ZM116.827 36.9492C116.898 36.8432 116.969 36.8658 117.039 36.8218C117.08 36.8927 117.031 36.9637 117.082 37.0344C117.011 37.0878 116.94 37.0698 116.87 36.9991C116.854 36.9832 116.84 36.9663 116.826 36.9485L116.827 36.9492ZM111.389 28.1135C111.435 28.1221 111.479 28.1403 111.518 28.167C111.556 28.1938 111.589 28.2284 111.613 28.2686C111.637 28.3087 111.652 28.3536 111.657 28.4001C111.663 28.4466 111.658 28.4938 111.644 28.5385C111.778 28.708 111.713 28.8782 111.559 29.048C111.467 29.0452 111.38 29.0083 111.314 28.9445C111.227 28.8194 111.186 28.6673 111.2 28.5151C111.213 28.3629 111.28 28.2205 111.389 28.1128L111.389 28.1135ZM115.553 32.7011C115.757 32.2544 116.299 32.1854 116.488 32.7011C116.468 32.9422 116.362 33.1682 116.19 33.3384C116.089 33.3377 115.989 33.352 115.893 33.3808C115.876 33.366 115.86 33.3513 115.846 33.3366C115.688 33.1579 115.585 32.9367 115.552 32.7005L115.553 32.7011ZM119.927 35.8868C119.659 35.5507 120.372 34.8106 120.692 35.377C120.711 35.6729 120.259 36.2191 119.939 35.899L119.927 35.8868ZM112.408 27.9433C112.087 27.0937 112.057 26.2437 112.833 25.3943C113.125 25.1762 113.457 25.0175 113.81 24.9271C114.478 24.9317 115.13 25.1394 115.678 25.5226C115.706 25.4795 115.735 25.4991 115.763 25.5228L116.06 25.8202C116.312 26.2443 116.444 26.7287 116.443 27.2218C116.411 27.246 116.389 27.2809 116.381 27.3199C116.374 27.359 116.38 27.3996 116.4 27.4341C116.356 27.5213 116.313 27.5543 116.273 27.647C116.24 27.7705 116.182 27.8861 116.103 27.9868C116.058 28.0432 116.074 28.0951 116.06 28.114C115.541 28.815 114.631 29.274 114.021 29.2187C113.561 29.0411 113.141 28.7712 112.789 28.4257C112.643 28.2808 112.515 28.1187 112.409 27.9429L112.408 27.9433ZM114.49 25.7769C114.135 26.003 113.783 26.0951 113.427 26.3289C113.298 26.5168 113.184 26.7152 113.088 26.9222C113.202 27.1205 113.172 27.3187 113.343 27.5162C113.437 27.6939 113.565 27.8515 113.72 27.9799C113.764 28.0242 113.81 28.0672 113.852 28.1117C113.908 28.0693 113.965 28.1328 114.022 28.1968C114.168 28.1977 114.312 28.2266 114.446 28.282C114.708 28.1972 114.952 28.0677 115.169 27.8993C115.33 27.6856 115.472 27.4583 115.594 27.2199C115.528 27.0923 115.595 26.9648 115.636 26.8377C115.551 26.5766 115.422 26.3322 115.253 26.1156C115.014 25.9717 114.757 25.8578 114.49 25.7763L114.49 25.7769ZM117.506 32.8708C117.509 32.7326 117.464 32.5976 117.378 32.4888C117.404 32.3629 117.418 32.2351 117.421 32.1068C117.438 31.9987 117.481 31.8965 117.547 31.8094C117.773 31.4338 118.509 30.8442 118.992 30.7894C119.032 30.7095 118.935 30.6298 118.838 30.5502C118.784 30.5099 118.735 30.4615 118.695 30.4065C118.735 30.3268 118.639 30.247 118.542 30.1673C118.487 30.127 118.438 30.0784 118.398 30.0234C118.448 29.8967 118.173 29.7685 118.27 29.641C118.117 29.5277 118.273 29.4144 118.186 29.3015C118.382 28.9004 118.799 28.7052 119.121 28.5371C119.517 28.4694 119.914 28.486 120.31 28.4519C120.636 28.5988 120.961 28.6076 121.287 28.8344C121.636 29.0394 121.951 29.2973 122.221 29.599C122.853 30.4486 122.97 31.2983 122.306 32.1478C121.952 32.49 121.598 32.8146 121.244 32.7852C120.95 32.5118 120.68 32.2132 120.437 31.893C120.262 31.8557 120.308 32.1729 120.225 32.2754C120.274 32.4308 120.084 32.5869 120.097 32.7428C119.555 33.5089 118.809 33.7149 118.143 33.5072L117.506 32.8708ZM119.842 30.6197C119.432 31.3213 118.31 31.6929 118.143 32.4886C118.186 32.5455 118.271 32.6021 118.228 32.6588C118.553 33.0083 118.879 32.8154 119.205 32.6162C119.45 32.3896 119.398 32.1633 119.545 31.9361C119.763 31.7382 119.792 31.5398 120.055 31.3417C120.12 31.3374 120.184 31.3202 120.242 31.291C120.3 31.2619 120.352 31.2214 120.395 31.1719C120.413 31.2308 120.445 31.284 120.489 31.3265C120.534 31.3689 120.589 31.399 120.648 31.4138C120.729 31.4457 120.802 31.4937 120.863 31.555C120.955 31.5497 121.046 31.648 121.139 31.7458C121.231 31.8435 121.323 31.942 121.415 31.937C121.71 31.6821 121.756 31.4276 121.924 31.1734C121.908 30.9748 121.846 30.7774 121.839 30.5785C121.796 30.5219 121.711 30.465 121.754 30.4088C121.692 30.3473 121.63 30.285 121.569 30.2225C121.317 29.946 121.037 29.6953 120.734 29.4742C120.154 29.3285 119.574 29.1623 118.993 29.4319C119.154 29.6155 119.296 29.8148 119.418 30.0268C119.455 30.0621 119.492 30.0975 119.527 30.1328C119.68 30.258 119.791 30.4281 119.843 30.6192L119.842 30.6197ZM114.162 27.355C114.26 27.2457 114.448 27.2263 114.531 27.5169L114.318 27.729C114.259 27.7146 114.204 27.6852 114.159 27.6436C114.122 27.6046 114.101 27.5525 114.102 27.4986C114.103 27.4446 114.125 27.3932 114.163 27.3553L114.162 27.355ZM114.319 26.4557C114.347 26.4501 114.376 26.4501 114.403 26.4556C114.431 26.4611 114.458 26.4721 114.482 26.4878C114.505 26.5036 114.526 26.5239 114.541 26.5475C114.557 26.5711 114.568 26.5977 114.574 26.6256C114.579 26.6535 114.579 26.6822 114.574 26.7101C114.568 26.738 114.558 26.7645 114.542 26.7882C114.526 26.8119 114.506 26.8322 114.482 26.848C114.458 26.8639 114.432 26.8749 114.404 26.8805C114.383 26.864 114.364 26.8464 114.345 26.8278C114.222 26.7042 114.206 26.5801 114.32 26.4566L114.319 26.4557ZM114.871 27.0079C114.892 26.9259 114.934 26.851 114.994 26.7912C115.054 26.7314 115.129 26.6888 115.211 26.6682L115.381 26.838C115.36 26.92 115.318 26.9949 115.258 27.0547C115.198 27.1145 115.123 27.157 115.041 27.1778L114.871 27.0079ZM123.027 34.1447C123.352 33.8684 123.697 34.5542 123.41 34.7819C123.313 34.7768 123.223 34.7348 123.156 34.6646C123.088 34.5987 123.04 34.5151 123.018 34.4232C122.995 34.3313 122.999 34.2349 123.028 34.145L123.027 34.1447ZM113.724 22.5475C113.99 22.2706 114.646 22.8494 114.319 23.142C114.182 23.2434 114.013 23.1749 113.886 23.0481C113.743 22.9039 113.652 22.6815 113.725 22.5478L113.724 22.5475ZM124.471 32.2752C124.612 32.1159 124.792 31.9966 124.993 31.9295C125.195 31.8624 125.411 31.8498 125.619 31.893L125.874 32.1479C125.859 32.7343 125.046 32.9797 124.642 32.7852C124.532 32.6379 124.473 32.4593 124.473 32.2758L124.471 32.2752ZM118.567 26.2006C118.517 26.1049 118.475 26.0056 118.44 25.9034C118.439 25.702 118.467 25.5016 118.525 25.3086C118.545 25.2028 118.546 25.0994 118.567 25.0116C118.594 24.9006 118.67 24.8145 118.694 24.7142C118.742 24.518 118.737 24.2923 118.779 24.1199C118.806 24.0107 118.88 23.9129 118.906 23.8227C118.934 23.726 118.948 23.626 118.948 23.5254C119.247 23.3131 119.249 23.1004 119.415 22.8879C119.715 22.7822 120.036 22.7528 120.35 22.8024C120.569 22.9141 120.748 23.0926 120.859 23.3122C120.834 23.9071 120.521 24.5019 120.52 25.0964C120.266 25.6917 120.475 26.2856 120.009 26.8796C119.571 26.9365 119.131 26.6447 118.692 26.4974C118.672 26.4894 118.654 26.4774 118.638 26.4622C118.575 26.3989 118.598 26.2913 118.568 26.2011L118.567 26.2006ZM119.587 23.3971C119.429 23.6092 119.603 23.822 119.459 24.0343C119.473 24.2543 119.429 24.4742 119.331 24.6718C119.36 25.0964 119.106 25.5212 119.161 25.946C119.303 25.8637 119.446 26.0507 119.586 25.946C119.619 25.5401 119.704 25.1401 119.841 24.7563C119.955 24.3552 120.072 23.9592 120.181 23.5673L120.177 23.5632C119.981 23.3659 119.784 23.4674 119.588 23.3974L119.587 23.3971ZM115.381 21.8255C115.451 21.6134 115.522 21.4012 115.593 21.1891C115.59 21.0776 115.611 20.9668 115.655 20.8643C115.699 20.7618 115.765 20.6699 115.847 20.595C115.967 20.4749 116.121 20.3943 116.288 20.3639C116.455 20.3335 116.627 20.3548 116.782 20.4249L117.164 20.8074C117.121 20.8642 117.206 20.9202 117.249 20.9773C117.263 21.0906 117.23 21.2041 117.334 21.3171C117.34 21.6479 117.266 21.9753 117.118 22.2711C116.97 22.567 116.752 22.8224 116.484 23.0156C116.328 23.0028 116.172 23.1922 116.017 23.1436C115.875 23.2168 115.734 23.0767 115.592 23.0582C115.576 23.0436 115.561 23.029 115.546 23.0145C115.153 22.6178 115.3 22.2217 115.381 21.8262L115.381 21.8255ZM116.23 21.0606C115.955 21.3008 116.049 21.5421 115.933 21.7824C115.897 22.0375 115.783 22.2922 115.933 22.5471C116.611 22.326 116.958 21.4693 116.485 20.9752C116.402 21.0599 116.317 20.9144 116.232 21.0609L116.23 21.0606ZM122.262 26.4983C122.553 26.15 123.204 26.4193 123.112 26.8377C123.005 26.9205 122.872 26.9625 122.736 26.9562C122.601 26.9499 122.472 26.8957 122.373 26.8032C122.333 26.7642 122.302 26.7165 122.283 26.6637C122.264 26.6109 122.257 26.5544 122.264 26.4986L122.262 26.4983ZM124.386 27.5176C124.486 27.5054 124.585 27.4028 124.684 27.3907C125.115 27.7728 124.983 28.1556 124.896 28.5378C124.74 28.6939 124.584 28.5519 124.429 28.5806C124.128 28.2261 124.269 27.872 124.388 27.5181L124.386 27.5176Z" fill="black"/>
</g>
<defs>
<clipPath id="clip0_1_306">
<rect width="30" height="30" fill="white" transform="translate(116.213 9.2868) rotate(45)"/>
</clipPath>
</defs>
</svg>
